<svg width="360" height="640" viewBox="0 0 360 640" fill="none" xmlns="http://www.w3.org/2000/svg">
<g clip-path="url(#clip0_103_86)">
<rect width="360" height="640" fill="white"/>
<path d="M158.609 222.553C244.946 101.154 216.523 -67.2492 95.1238 -153.586C-26.2751 -239.923 -194.678 -211.5 -281.016 -90.1013C-367.353 31.2976 -338.929 199.701 -217.531 286.038C-96.1316 372.375 72.2718 343.952 158.609 222.553Z" fill="#6A6DCD" fill-opacity="0.2"/>
<path d="M70.6402 450.673C156.977 329.274 128.554 160.87 7.15515 74.5332C-114.244 -11.8039 -282.647 16.6193 -368.984 138.018C-455.321 259.417 -426.898 427.821 -305.499 514.158C-184.1 600.495 -15.697 572.072 70.6402 450.673Z" fill="#6A6DCD" fill-opacity="0.2"/>
<path d="M-93.9951 246.597C-7.65798 125.198 -36.0811 -43.2052 -157.48 -129.542C-278.879 -215.879 -447.282 -187.456 -533.62 -66.0572C-619.957 55.3417 -591.533 223.745 -470.135 310.082C-348.736 396.419 -180.332 367.996 -93.9951 246.597Z" fill="#6A6DCD" fill-opacity="0.2"/>
<path d="M172.292 352.217C259.405 231.374 232.062 62.7921 111.219 -24.3215C-9.62392 -111.435 -178.206 -84.0919 -265.32 36.7511C-352.433 157.594 -325.09 326.176 -204.247 413.29C-83.4042 500.403 85.1779 473.06 172.292 352.217Z" fill="#6A6DCD" fill-opacity="0.2"/>
<path d="M-69.4834 388.545C17.6302 267.702 -9.71281 99.1195 -130.556 12.0059C-251.399 -75.1077 -419.981 -47.7645 -507.095 73.0785C-594.208 193.921 -566.865 362.504 -446.022 449.617C-325.179 536.731 -156.597 509.388 -69.4834 388.545Z" fill="#6A6DCD" fill-opacity="0.2"/>
<path d="M26.5001 144.529C113.614 23.6857 86.2706 -144.896 -34.5724 -232.01C-155.415 -319.124 -323.998 -291.78 -411.111 -170.937C-498.225 -50.0945 -470.882 118.488 -350.039 205.601C-229.196 292.715 -60.6135 265.372 26.5001 144.529Z" fill="#6A6DCD" fill-opacity="0.2"/>
<path d="M834.609 684.553C920.946 563.154 892.523 394.751 771.124 308.414C649.725 222.077 481.322 250.5 394.984 371.899C308.647 493.298 337.071 661.701 458.469 748.038C579.868 834.375 748.272 805.952 834.609 684.553Z" fill="#6A6DCD" fill-opacity="0.2"/>
<path d="M746.64 912.673C832.977 791.274 804.554 622.87 683.155 536.533C561.756 450.196 393.353 478.619 307.016 600.018C220.679 721.417 249.102 889.821 370.501 976.158C491.9 1062.49 660.303 1034.07 746.64 912.673Z" fill="#6A6DCD" fill-opacity="0.2"/>
<path d="M582.005 708.597C668.342 587.198 639.919 418.795 518.52 332.458C397.121 246.121 228.718 274.544 142.38 395.943C56.0433 517.342 84.4665 685.745 205.865 772.082C327.264 858.419 495.668 829.996 582.005 708.597Z" fill="#6A6DCD" fill-opacity="0.2"/>
<path d="M848.292 814.217C935.405 693.374 908.062 524.792 787.219 437.679C666.376 350.565 497.794 377.908 410.68 498.751C323.567 619.594 350.91 788.176 471.753 875.29C592.596 962.403 761.178 935.06 848.292 814.217Z" fill="#6A6DCD" fill-opacity="0.2"/>
<path d="M606.517 850.545C693.63 729.702 666.287 561.12 545.444 474.006C424.601 386.892 256.019 414.235 168.905 535.078C81.7919 655.921 109.135 824.504 229.978 911.617C350.821 998.731 519.403 971.388 606.517 850.545Z" fill="#6A6DCD" fill-opacity="0.2"/>
<path d="M702.5 606.529C789.614 485.686 762.271 317.104 641.428 229.99C520.585 142.876 352.002 170.22 264.889 291.063C177.775 411.906 205.118 580.488 325.961 667.601C446.804 754.715 615.386 727.372 702.5 606.529Z" fill="#6A6DCD" fill-opacity="0.2"/>
<path d="M594.797 700.95C540.028 724.361 478.38 729.252 420.056 713.963C396.409 688.019 378.529 658.164 366.733 626.304C371.23 591.044 382.767 556.264 401.69 524.115C452.809 496.062 511.887 485.303 569.521 493.423C598.029 518.148 620.225 547.826 635.748 580.235C632.092 622.012 618.642 663.434 594.797 700.95Z" fill="#BEBFE9"/>
</g>
<defs>
<clipPath id="clip0_103_86">
<rect width="360" height="640" fill="white"/>
</clipPath>
</defs>
</svg>
