<svg width="48" height="51" viewBox="0 0 48 51" fill="none" xmlns="http://www.w3.org/2000/svg">
<path d="M8.06117 16.341C8.17562 25.137 15.399 32.1748 24.1949 32.0603C32.9909 31.9459 40.0287 24.7225 39.9143 15.9265C39.7998 7.13056 32.5765 0.0927791 23.7805 0.207228C14.9845 0.321677 7.94672 7.54501 8.06117 16.341Z" fill="#6A6DCD" fill-opacity="0.29"/>
<path d="M0.207164 20.4746C0.321613 29.2705 7.54495 36.3083 16.3409 36.1939C25.1369 36.0794 32.1747 28.8561 32.0603 20.0601C31.9458 11.2641 24.7225 4.22633 15.9265 4.34078C7.13049 4.45523 0.0927153 11.6786 0.207164 20.4746Z" fill="#6A6DCD" fill-opacity="0.29"/>
<path d="M15.9391 20.4746C16.0535 29.2705 23.2769 36.3083 32.0729 36.1939C40.8689 36.0794 47.9066 28.8561 47.7922 20.0601C47.6777 11.2641 40.4544 4.22633 31.6584 4.34078C22.8624 4.45523 15.8246 11.6786 15.9391 20.4746Z" fill="#6A6DCD" fill-opacity="0.29"/>
<path d="M39.9144 34.5867C39.8 25.7907 32.5766 18.7529 23.7806 18.8674C14.9847 18.9818 7.94688 26.2052 8.06133 35.0011C8.17578 43.7971 15.3991 50.8349 24.1951 50.7205C32.9911 50.606 40.0289 43.3827 39.9144 34.5867Z" fill="#6A6DCD" fill-opacity="0.29"/>
<path d="M47.7923 30.394C47.6779 21.598 40.4546 14.5602 31.6586 14.6747C22.8626 14.7891 15.8248 22.0124 15.9393 30.8084C16.0537 39.6044 23.277 46.6422 32.073 46.5277C40.869 46.4133 47.9068 39.19 47.7923 30.394Z" fill="#6A6DCD" fill-opacity="0.29"/>
<path d="M32.0604 30.394C31.946 21.598 24.7226 14.5602 15.9266 14.6747C7.13065 14.7891 0.0928742 22.0124 0.207323 30.8084C0.321772 39.6044 7.54511 46.6422 16.3411 46.5277C25.1371 46.4133 32.1749 39.19 32.0604 30.394Z" fill="#6A6DCD" fill-opacity="0.29"/>
<path d="M27.2372 19.1959C26.1161 18.9619 24.9523 18.8459 23.7595 18.8614C22.7209 18.8749 21.7068 18.9875 20.7261 19.1902C18.9584 20.914 17.591 23.0445 16.7737 25.4278C17.6038 27.8505 19.0008 30.0073 20.8046 31.7421C21.8922 31.9612 23.0195 32.0694 24.1738 32.0544C25.1958 32.0411 26.1941 31.9318 27.1602 31.7352C28.9624 29.9992 30.3556 27.8435 31.1838 25.4281C30.3666 23.0434 29.0002 20.9164 27.2372 19.1959Z" fill="#6763A8"/>
</svg>
